HIERARCHY
ROOT pelvis
{
  OFFSET 0 100 0
  CHANNELS 6 Xposition Yposition Zposition Zrotation Xrotation Yrotation
  JOINT pelvis_right_femur
  {
    OFFSET -10.78128 -3.44521 -0.5502486
    CHANNELS 3 Zrotation Xrotation Yrotation
    JOINT right_femur_tibia
    {
      OFFSET -0.8047443 -44.0398 -0.1307829
      CHANNELS 3 Zrotation Xrotation Yrotation
      JOINT right_tibia_foot
      {
        OFFSET 3.006224 -47.83518 -5
        CHANNELS 3 Zrotation Xrotation Yrotation
        End Site
        {
          OFFSET 0 -5 15
        }
      }
    }
  }
  JOINT pelvis_left_femur
  {
    OFFSET 10.78128 -3.44521 -0.5502486
    CHANNELS 3 Zrotation Xrotation Yrotation
    JOINT left_femur_tibia
    {
      OFFSET 0.8047443 -44.0398 -0.1307829
      CHANNELS 3 Zrotation Xrotation Yrotation
      JOINT left_tibia_foot
      {
        OFFSET -4.370144 -48.10324 -4.275266
        CHANNELS 3 Zrotation Xrotation Yrotation
        End Site
        {
          OFFSET 0 -5 15
        }
      }
    }
  }
  JOINT pelvis_spine1
  {
    OFFSET 0 6.468898 -3.129235
    CHANNELS 3 Zrotation Xrotation Yrotation
    JOINT spine1
    {
      OFFSET 0 23.15396 4.99043
      CHANNELS 3 Zrotation Xrotation Yrotation
      JOINT spine2
      {
        OFFSET 0 20.79997 -5.064912
        CHANNELS 3 Zrotation Xrotation Yrotation
        JOINT neck
        {
          OFFSET 0 14.38658 9.616178
          CHANNELS 3 Zrotation Xrotation Yrotation
          End Site
          {
            OFFSET 0 20 0
          }
        }
      }
      JOINT right_manubrium
      {
        OFFSET -5.722621 16.35077 3.967754
        CHANNELS 3 Zrotation Xrotation Yrotation
        JOINT right_clavicle
        {
          OFFSET -13.16364 1.694482 -4.693211
          CHANNELS 3 Zrotation Xrotation Yrotation
          JOINT right_humerus
          {
            OFFSET -28.5034 -0.3100689 -2.792744
            CHANNELS 3 Zrotation Xrotation Yrotation
            JOINT right_radius
            {
              OFFSET -25.15693 0.02248979 -1.271978
              CHANNELS 3 Zrotation Xrotation Yrotation
              End Site
              {
                OFFSET -15 0 0
              }
            }
          }
        }
      }
      JOINT left_manubrium
      {
        OFFSET 5.722621 16.35077 3.967754
        CHANNELS 3 Zrotation Xrotation Yrotation
        JOINT left_clavicle
        {
          OFFSET 13.16364 1.694482 -4.693211
          CHANNELS 3 Zrotation Xrotation Yrotation
          JOINT left_humerus
          {
            OFFSET 29.39168 -1.063119 -2.237045
            CHANNELS 3 Zrotation Xrotation Yrotation
            JOINT left_radius
            {
              OFFSET 24.59957 -0.9528479 0.9047498
              CHANNELS 3 Zrotation Xrotation Yrotation
              End Site
              {
                OFFSET 15 -0 -0
              }
            }
          }
        }
      }
    }
  }
}
MOTION
Frames: 18
Frame Time: 0.0416666666667
0 103.5113 0 0.5117955 1.706313 0.4693848 2.85546 -15.43938 7.104794 -1.207625e-09 30.7522 3.647825e-10 -4.175023 -14.76154 -2.264002 -6.557342 4.074962 -20.05668 1.854362e-11 -1.282393 1.500289e-09 3.5794 -18.9879 22.4948 -3.621748 -2.188826 4.905108 2.403852 8.201577 -7.673465 0.625647 21.56126 7.751436 3.398415 -25.43479 9.192777 6.636257 -20.19794 11.47445 84.08948 38.45846 -16.64292 1.638827e-11 2.176465e-10 17.62886 -10.45578 10.23465 7.959825 5.559176 -18.98925 -0.9926086 -95.00752 29.42403 24.49109 -3.266642e-11 2.159706e-10 -18.32857 2.659899 14.69497 12.30828
0.591243 102.9135 2.688351 0.5704837 1.619985 1.034267 2.702239 -17.03057 7.139025 -1.171853e-09 32.39548 3.76657e-10 -3.838035 -14.03985 -2.613694 -6.720801 5.903498 -20.29401 2.243373e-10 -1.634515 1.654094e-09 3.515306 -19.70178 22.4583 -3.767911 -2.135642 4.645325 2.407905 8.119863 -7.799048 0.6789063 21.72069 7.868044 3.422072 -25.33601 9.381792 6.759364 -19.75713 11.38324 84.89905 38.50243 -17.41673 -4.035459e-12 1.977782e-10 17.0526 -10.51237 10.30533 7.8555 5.658269 -19.07762 -1.034989 -94.76423 29.78598 23.49517 -1.514333e-11 2.126294e-10 -18.89382 2.576224 14.58475 12.46627
1.165331 102.344 5.407192 0.5636675 1.588557 1.643931 2.723451 -18.85992 7.04763 -1.000585e-09 32.88711 2.905625e-10 -3.811715 -13.3474 -2.884212 -6.776489 7.798105 -20.414 3.468245e-10 -1.500866 1.729813e-09 3.510874 -20.28038 22.28679 -3.820369 -2.119508 4.374645 2.465351 8.106434 -7.98382 0.7038969 21.80888 7.940308 3.446144 -25.30665 9.488739 6.773838 -19.37112 11.31943 85.74448 38.42565 -18.37066 -2.320734e-12 1.824248e-10 16.33574 -10.43108 10.3194 7.637279 5.789089 -19.35659 -1.141269 -94.30249 29.92263 22.42537 -2.048207e-12 2.081393e-10 -19.6745 2.758904 14.62706 12.2448
1.700473 101.7865 8.13888 0.4902664 1.620717 2.258159 2.917849 -20.83875 6.857807 -7.070009e-10 32.201 1.156602e-10 -4.082037 -12.74046 -3.061137 -6.728779 9.660296 -20.42086 3.76359e-10 -0.860385 1.717748e-09 3.553591 -20.69304 21.98667 -3.778037 -2.139697 4.108935 2.575708 8.154196 -8.219498 0.6990635 21.81942 7.967588 3.470121 -25.35045 9.511142 6.690163 -19.05011 11.28662 86.56531 38.25178 -19.45118 2.083435e-11 1.729797e-10 15.51328 -10.20487 10.2802 7.313281 5.941565 -19.80378 -1.297509 -93.65208 29.84139 21.33736 6.049083e-12 2.031018e-10 -20.63718 3.182703 14.80631 11.6785
2.173922 101.2246 10.87133 0.3506532 1.708741 2.835343 3.285589 -22.89779 6.590825 -3.111983e-10 30.34001 -1.281592e-10 -4.640783 -12.2513 -3.140692 -6.582517 11.418 -20.31301 3.089502e-10 0.3430368 1.612353e-09 3.629512 -20.91966 21.56942 -3.639548 -2.194527 3.862546 2.737013 8.266871 -8.501685 0.665321 21.76342 7.950078 3.494487 -25.47359 9.451348 6.513527 -18.80982 11.29352 87.38714 37.98807 -20.64804 6.477245e-11 1.698334e-10 14.6149 -9.85243 10.19797 6.89792 6.110595 -20.41558 -1.499494 -92.89241 29.53923 20.29052 8.8826e-12 1.977287e-10 -21.7644 3.83665 15.11133 10.79137
2.572459 100.6489 13.5962 0.1708443 1.826911 3.344727 3.752669 -24.79773 6.300022 1.124092e-10 27.69743 -3.838574e-10 -5.350974 -11.89997 -3.140534 -6.371679 12.91114 -20.09894 1.722805e-10 1.948841 1.43801e-09 3.69468 -20.94906 21.06597 -3.433729 -2.264805 3.653394 2.919789 8.407452 -8.784189 0.6146129 21.6396 7.890375 3.508885 -25.61566 9.322514 6.277499 -18.62475 11.31678 88.01387 37.6696 -21.76657 1.201176e-10 1.71978e-10 13.71915 -9.425824 10.08698 6.441265 6.266109 -21.07203 -1.714301 -92.01327 29.09275 19.32306 7.505557e-12 1.925028e-10 -22.89853 4.596772 15.44839 9.742634
2.887712 100.0595 16.32953 -0.01940924 1.916015 3.768759 4.260838 -26.51118 6.01803 5.297478e-10 24.72362 -6.214827e-10 -6.085339 -11.60923 -3.126268 -6.132768 14.2012 -19.7829 4.946684e-12 3.962664 1.219407e-09 3.687388 -20.83505 20.49956 -3.189269 -2.326728 3.475524 3.099734 8.564191 -9.050173 0.5659025 21.49729 7.800774 3.50959 -25.72818 9.159284 6.010103 -18.44735 11.34505 88.54476 37.2934 -22.81581 1.778435e-10 1.763391e-10 12.82535 -9.020799 9.988312 5.982774 6.401982 -21.72881 -1.938933 -91.09365 28.56772 18.38426 4.683438e-12 1.865156e-10 -24.0074 5.375577 15.75009 8.661517
3.127281 99.47186 19.12984 -0.1665005 1.871948 4.106907 4.708397 -27.7816 5.807619 8.8373e-10 22.16936 -8.054515e-10 -6.613502 -11.31991 -3.191384 -5.922187 15.18422 -19.35212 -1.428645e-10 6.427438 9.838483e-10 3.486208 -20.60493 19.93104 -2.950422 -2.33705 3.350403 3.226543 8.720516 -9.24977 0.5516299 21.42184 7.696212 3.488401 -25.72947 9.014499 5.762224 -18.23484 11.36803 89.09403 36.86137 -23.72146 2.211674e-10 1.801039e-10 12.01122 -8.823625 9.984961 5.617588 6.49396 -22.27966 -2.157344 -90.33963 28.07919 17.49447 4.024783e-12 1.78423e-10 -24.95493 5.983848 15.90135 7.818689
3.310324 98.91881 22.07826 -0.2354746 1.645762 4.36974 5.033895 -28.40412 5.724495 1.143525e-09 20.4882 -9.256871e-10 -6.753849 -11.03535 -3.399615 -5.773749 15.75194 -18.78904 -2.434943e-10 9.407932 7.371203e-10 2.988853 -20.24734 19.38188 -2.744895 -2.262198 3.295966 3.267468 8.845726 -9.342201 0.5921693 21.445 7.584189 3.436133 -25.55116 8.917082 5.580372 -17.93381 11.36808 89.60936 36.40885 -24.37925 2.379947e-10 1.83907e-10 11.32362 -8.923729 10.13226 5.397935 6.515907 -22.61859 -2.3431 -89.79368 27.73475 16.63437 7.881238e-12 1.678118e-10 -25.63426 6.256163 15.80647 7.432705
3.464192 98.43888 25.25343 -0.2136951 1.229257 4.573422 5.201197 -28.21207 5.773565 1.292418e-09 19.82786 -9.817391e-10 -6.446106 -10.77673 -3.752709 -5.6915 15.77735 -18.08142 -2.862538e-10 12.81518 4.827498e-10 2.179389 -19.73019 18.86706 -2.582656 -2.09298 3.324412 3.20538 8.92099 -9.297266 0.6925869 21.55267 7.45985 3.345676 -25.15609 8.865223 5.474413 -17.5359 11.33026 89.93557 35.95522 -24.65988 2.241396e-10 1.884576e-10 10.81048 -9.340023 10.4323 5.349426 6.450878 -22.67521 -2.479753 -89.39953 27.56608 15.81966 1.638734e-11 1.548191e-10 -25.94323 6.12794 15.42982 7.575782
3.60845 98.07113 28.73722 -0.1285181 0.6436814 4.715237 5.298794 -27.17214 5.950749 1.36467e-09 19.68704 -9.961842e-10 -5.79427 -10.66365 -4.224142 -5.623176 15.13548 -17.17906 -3.077628e-10 17.03638 1.670735e-10 1.049241 -18.94844 18.36889 -2.421296 -1.838588 3.46596 3.062896 8.980372 -9.136177 0.8420917 21.74438 7.30972 3.221129 -24.60016 8.835772 5.423203 -17.09531 11.28867 90.18587 35.49635 -24.65562 1.873025e-10 1.988449e-10 10.47564 -10.04482 10.89443 5.455257 6.303294 -22.52534 -2.578789 -89.25474 27.51266 15.14465 2.735534e-11 1.398167e-10 -25.95813 5.675581 14.81423 8.162534
3.749022 97.84962 32.57478 -0.03447736 -0.002482841 4.76372 5.442013 -25.23277 6.245831 1.390513e-09 19.22714 -9.883546e-10 -4.979358 -10.92564 -4.711335 -5.480234 13.60951 -16.05742 -3.592735e-10 22.26899 -2.681085e-10 -0.3357958 -17.7501 17.85892 -2.205941 -1.528987 3.754662 2.882681 9.032364 -8.880906 1.00867 21.93569 7.112042 3.066586 -23.96556 8.770294 5.401151 -16.6847 11.26658 90.16855 35.09334 -24.34242 1.414891e-10 2.234188e-10 10.34146 -10.87285 11.46857 5.657091 6.068964 -22.21814 -2.625876 -89.26385 27.49647 14.742 3.609672e-11 1.253269e-10 -25.72384 5.008572 14.02335 9.037739
3.882308 97.79379 36.7969 0.03720634 -0.6764269 4.671274 5.678608 -22.4219 6.60798 1.39364e-09 18.03562 -9.704594e-10 -4.153228 -11.61654 -5.146541 -5.193534 11.14599 -14.7119 -4.409271e-10 28.55006 -8.418877e-10 -1.893581 -16.09238 17.36511 -1.908589 -1.187975 4.20063 2.687195 9.111953 -8.554794 1.176059 22.11244 6.857217 2.891143 -23.31797 8.64376 5.370919 -16.38207 11.29174 89.95432 34.72199 -23.78198 9.615017e-11 2.633494e-10 10.42407 -11.77848 12.12449 5.936679 5.7621 -21.83519 -2.638407 -89.48903 27.43123 14.7196 3.997209e-11 1.11844e-10 -25.28983 4.247596 13.13612 10.05036
4.015544 97.89319 41.38022 0.07801314 -1.325492 4.402602 5.924665 -18.63889 6.937931 1.331286e-09 16.28686 -9.243296e-10 -3.464019 -12.70351 -5.393508 -4.732094 7.632372 -13.26919 -5.327168e-10 34.85696 -1.474446e-09 -3.370193 -14.08438 17.04029 -1.56266 -0.8657991 4.799617 2.472739 9.233884 -8.145637 1.321878 22.24466 6.554028 2.711604 -22.72932 8.445551 5.29717 -16.34718 11.37295 89.42901 34.37787 -22.81359 5.658418e-11 3.121402e-10 10.89969 -12.72741 12.7561 6.336138 5.400328 -21.37331 -2.614667 -90.01684 27.25053 15.34302 3.564879e-11 1.010449e-10 -24.47986 3.494026 12.28196 11.05867
4.148456 98.1207 46.27129 0.08026955 -1.914053 3.941336 6.147831 -14.31612 7.165906 1.222966e-09 14.16207 -8.61141e-10 -2.990497 -13.97824 -5.434125 -4.10923 3.508287 -11.82453 -6.15699e-10 40.55953 -2.10112e-09 -4.62381 -11.93864 16.88608 -1.198525 -0.5914716 5.471585 2.253699 9.39237 -7.69123 1.436232 22.31025 6.221938 2.540394 -22.22178 8.185871 5.158717 -16.55929 11.4881 88.62307 34.01867 -21.53389 2.695271e-11 3.617013e-10 11.66968 -13.64373 13.28662 6.803866 5.023798 -20.88829 -2.577723 -90.67874 26.91868 16.45098 2.408048e-11 9.2539e-11 -23.38206 2.852273 11.54795 11.90603
4.2912 98.41176 51.33884 0.04996673 -2.34509 3.313965 6.24902 -9.929807 7.203521 1.041972e-09 12.24283 -7.726017e-10 -2.855578 -15.18222 -5.185581 -3.431878 -0.7415874 -10.64461 -7.302522e-10 44.02371 -2.52993e-09 -5.330204 -10.04361 16.97757 -0.8978602 -0.4342348 6.11345 2.042226 9.564341 -7.225783 1.492916 22.26805 5.908109 2.404652 -21.87152 7.890035 4.944237 -17.07926 11.60657 87.46444 33.65112 -19.92705 1.205027e-11 3.98488e-10 12.75258 -14.39576 13.5605 7.307571 4.689684 -20.40202 -2.532342 -91.34578 26.42828 18.02436 5.098237e-12 8.782847e-11 -21.961 2.444768 11.1086 12.40191
4.461617 98.6897 56.45971 0.008126194 -2.646828 2.562843 6.203197 -5.600264 7.066084 7.814652e-10 10.87337 -6.553336e-10 -3.006611 -16.19512 -4.689574 -2.772308 -4.944641 -9.76594 -9.137334e-10 45.03465 -2.694968e-09 -5.495382 -8.504094 17.29145 -0.6859357 -0.3922797 6.696123 1.826863 9.743851 -6.750621 1.500701 22.14369 5.625565 2.304613 -21.65611 7.58152 4.66061 -17.87556 11.71295 86.04014 33.23499 -18.03166 8.055029e-12 4.181097e-10 14.11814 -15.02018 13.5784 7.852833 4.408734 -19.90853 -2.487721 -92.01301 25.80158 19.97558 -1.941807e-11 8.573414e-11 -20.22255 2.251592 10.9611 12.5717
4.682402 98.88376 61.53664 -0.02601202 -2.861516 1.741092 6.013653 -1.552761 6.782989 4.52433e-10 10.33333 -5.102199e-10 -3.397428 -16.90618 -4.019478 -2.217498 -8.844714 -9.232502 -1.151908e-09 43.6636 -2.587742e-09 -5.160088 -7.427218 17.80983 -0.5798945 -0.4579921 7.191247 1.606114 9.943318 -6.291197 1.472928 22.00457 5.39455 2.245466 -21.57997 7.299131 4.324085 -18.90871 11.81175 84.66401 32.74873 -16.03575 1.212346e-11 4.175499e-10 15.6952 -15.57799 13.37656 8.442913 4.202467 -19.45904 -2.465482 -92.80695 25.06655 22.19752 -4.683631e-11 8.476113e-11 -18.27802 2.268695 11.10649 12.44794
